<svg id="Capa_1" enable-background="new 0 0 512 512" height="512" viewBox="0 0 512 512" width="512" xmlns="http://www.w3.org/2000/svg"><path d="m497 1h-482c-8.284 0-15 6.716-15 15v210c0 8.284 6.716 15 15 15h482c8.284 0 15-6.716 15-15v-210c0-8.284-6.716-15-15-15z" fill="#ffda2d"/><path d="m512 16v210c0 8.28-6.72 15-15 15h-241v-240h241c8.28 0 15 6.72 15 15z" fill="#fdbf00"/><path d="m165 271h-150c-8.284 0-15 6.716-15 15v210c0 8.284 6.716 15 15 15h150c8.284 0 15-6.716 15-15v-210c0-8.284-6.716-15-15-15z" fill="#0097f0"/><path d="m497 271h-272c-8.284 0-15 6.716-15 15v210c0 8.284 6.716 15 15 15h272c8.284 0 15-6.716 15-15v-210c0-8.284-6.716-15-15-15z" fill="#0052c2"/><path d="m512 286v210c0 8.28-6.72 15-15 15h-241v-240h241c8.28 0 15 6.72 15 15z" fill="#003481"/><path d="m423.909 315.407 21.392-17.922c8.312-6.963 6.701-20.208-3.042-24.973l-163.213-79.823c-11.471-5.61-24.294 4.829-21.12 17.203l45.755 178.296c2.74 10.676 15.709 14.85 24.162 7.77l21.344-17.881 22.736 27.255c5.306 6.361 14.79 7.228 21.161 1.882l51.726-43.404c6.333-5.314 7.172-14.751 1.876-21.099z" fill="#ff641a"/><path d="m446.69 342.71c5.29 6.35 4.45 15.79-1.88 21.1l-21.69 18.2-159.86-187.66c4.22-3.31 10.16-4.41 15.78-1.66l163.22 79.82c9.74 4.77 11.35 18.01 3.04 24.98l-21.39 17.92z" fill="#f03800"/><path d="m105 61c-24.813 0-45 20.187-45 45v60c0 8.284 6.716 15 15 15s15-6.716 15-15v-15h30v15c0 8.284 6.716 15 15 15s15-6.716 15-15v-60c0-24.813-20.187-45-45-45zm-15 60v-15c0-8.271 6.729-15 15-15s15 6.729 15 15v15z" fill="#fe9022"/><path d="m210 61h-15c-8.284 0-15 6.716-15 15v90c0 8.284 6.716 15 15 15h15c33.084 0 60-26.916 60-60s-26.916-60-60-60zm0 90v-60c16.542 0 30 13.458 30 30s-13.458 30-30 30z" fill="#fe9022"/><g fill="#ff641a"><path d="m256 82.53v76.94c8.74-10.42 14-23.84 14-38.47s-5.26-28.05-14-38.47z"/><path d="m315 101h120c8.284 0 15-6.716 15-15s-6.716-15-15-15h-120c-8.284 0-15 6.716-15 15s6.716 15 15 15z"/><path d="m435 131h-120c-8.284 0-15 6.716-15 15s6.716 15 15 15h120c8.284 0 15-6.716 15-15s-6.716-15-15-15z"/></g></svg>