<svg id="Capa_1" enable-background="new 0 0 496.519 496.519" height="512" viewBox="0 0 496.519 496.519" width="512" xmlns="http://www.w3.org/2000/svg"><g><g id="XMLID_287_"><path d="m383.34 49.829h-339.01c-24.48 0-44.33 19.85-44.33 44.34v32.37l28.307 50.572h376.459l22.904-50.572v-32.37c0-24.49-19.85-44.34-44.33-44.34z" fill="#e5827f"/></g><path d="m53.025 90.545v-32.37c0-2.854.28-5.642.795-8.346h-9.49c-24.48 0-44.33 19.85-44.33 44.34v32.37l28.307 50.572h24.719v-86.566z" fill="#de6a66"/><path d="m427.67 126.539v250.83c0 25.1-20.35 45.44-45.45 45.44h-337.89c-24.48 0-44.33-19.85-44.33-44.33v-251.94z" fill="#f8f7f8"/><g><path d="m117.539 86.81c-7.447 0-13.485-6.037-13.485-13.485v-47.34c0-7.447 6.037-13.485 13.485-13.485 7.447 0 13.485 6.037 13.485 13.485v47.34c0 7.447-6.037 13.485-13.485 13.485z" fill="#b3adb5"/><path d="m310.129 86.81c7.447 0 13.485-6.037 13.485-13.485v-47.34c0-7.447-6.037-13.485-13.485-13.485-7.447 0-13.485 6.037-13.485 13.485v47.34c0 7.447 6.038 13.485 13.485 13.485z" fill="#b3adb5"/><path d="m389.003 248.987c-70.312 0-127.516 57.204-127.516 127.517v.104c.005 5.621-4.48 10.208-10.1 10.208h-154.032c-24.483 0-44.33-19.847-44.33-44.33v-215.947h-53.025v251.94c0 24.483 19.847 44.33 44.33 44.33h225.862 38.462 73.566c25.101 0 45.45-20.349 45.45-45.45v-122.373c-12.202-3.891-25.192-5.999-38.667-5.999z" fill="#efedee"/><circle cx="389.003" cy="376.503" fill="#cfeffc" r="107.516"/><path d="m320.154 378.803c0-54.972 41.258-100.302 94.497-106.729-8.22-2.012-16.808-3.086-25.648-3.086-59.379 0-107.516 48.136-107.516 107.516s48.136 107.516 107.516 107.516c4.407 0 8.751-.271 13.019-.787-46.994-11.503-81.868-53.891-81.868-104.43z" fill="#a9e4f9"/><path d="m389.003 268.987c-2.522 0-5.034.087-7.513.258l.012 19.408c0 4.143 3.357 7.5 7.5 7.5s7.5-3.357 7.5-7.5l.011-19.408c-2.477-.17-4.988-.258-7.51-.258z" fill="#a9e4f9"/><path d="m459.539 295.36-13.72 13.721c-2.929 2.93-2.929 7.678 0 10.607 1.465 1.464 3.385 2.196 5.304 2.196s3.839-.732 5.304-2.196l13.72-13.721c-3.287-3.777-6.832-7.321-10.608-10.607z" fill="#a9e4f9"/><path d="m469.352 376.503c0 4.143 3.357 7.5 7.5 7.5h19.402c.171-2.479.265-4.979.265-7.5s-.094-5.021-.265-7.5h-19.402c-4.142 0-7.5 3.358-7.5 7.5z" fill="#a9e4f9"/><path d="m445.819 433.318c-2.93 2.929-2.93 7.678-.001 10.606l13.721 13.722c3.776-3.286 7.321-6.83 10.606-10.606l-13.72-13.721c-2.928-2.929-7.677-2.93-10.606-.001z" fill="#a9e4f9"/><path d="m389.003 456.852c-4.143 0-7.5 3.357-7.5 7.5v19.402c2.479.171 4.978.265 7.5.265s5.021-.094 7.5-.265v-19.402c0-4.142-3.358-7.5-7.5-7.5z" fill="#a9e4f9"/><path d="m321.581 433.318-13.73 13.711c3.288 3.78 6.836 7.329 10.616 10.617l13.721-13.721c2.929-2.93 2.929-7.678 0-10.607-2.929-2.928-7.677-2.928-10.607 0z" fill="#81d9f8"/><path d="m281.752 384.003h19.402c4.143 0 7.5-3.357 7.5-7.5s-3.357-7.5-7.5-7.5h-19.403c-.171 2.479-.264 4.978-.264 7.5s.094 5.022.265 7.5z" fill="#81d9f8"/><path d="m307.86 305.967 13.722 13.721c1.464 1.464 3.384 2.196 5.303 2.196s3.839-.732 5.304-2.197c2.929-2.929 2.929-7.678-.001-10.606l-13.713-13.73c-3.777 3.286-7.329 6.84-10.615 10.616z" fill="#81d9f8"/><g><path d="m389.003 381.718c-4.143 0-7.5-3.357-7.5-7.5v-49.077c0-4.143 3.357-7.5 7.5-7.5s7.5 3.357 7.5 7.5v49.077c0 4.143-3.358 7.5-7.5 7.5z" fill="#a9e4f9"/></g><g><path d="m429.519 424.519c-1.919 0-3.839-.732-5.304-2.196l-29.37-29.37c-.188-.188-.365-.387-.532-.593l-8.996-11.146c-2.602-3.224-2.098-7.945 1.125-10.547 3.226-2.604 7.946-2.097 10.547 1.125l8.745 10.835 29.089 29.088c2.929 2.93 2.929 7.678 0 10.607-1.465 1.465-3.385 2.197-5.304 2.197z" fill="#a9e4f9"/></g><g><g><path d="m156.096 238.371c-.922 0-1.86-.171-2.77-.533-3.849-1.53-5.728-5.892-4.197-9.74l25.694-64.603c1.531-3.849 5.89-5.731 9.741-4.197 3.849 1.53 5.728 5.892 4.197 9.74l-25.694 64.603c-1.169 2.939-3.989 4.73-6.971 4.73z" fill="#a9e4f9"/></g></g><g><g><path d="m216.823 238.371c-1.008 0-2.032-.204-3.014-.636-3.792-1.667-5.515-6.093-3.848-9.885l23.774-54.084h-24.049c-4.142 0-7.5-3.357-7.5-7.5s3.358-7.5 7.5-7.5h35.539c2.533 0 4.896 1.279 6.28 3.4s1.605 4.799.586 7.118l-28.399 64.603c-1.234 2.81-3.985 4.484-6.869 4.484z" fill="#a9e4f9"/></g></g><g><g><path d="m119.443 236.592c-4.142 0-7.5-3.357-7.5-7.5v-13.767h-24.517c-2.707 0-5.203-1.458-6.533-3.815s-1.286-5.248.114-7.564c.172-.284 17.285-28.583 26.559-43.222 2.525-3.986 7.265-5.777 11.797-4.465 4.534 1.315 7.58 5.371 7.58 10.093v33.974h4.05c4.142 0 7.5 3.357 7.5 7.5s-3.358 7.5-7.5 7.5h-4.05v13.767c0 4.142-3.358 7.499-7.5 7.499zm-18.689-36.266h11.189v-18.269c-3.876 6.283-7.913 12.891-11.189 18.269z" fill="#a9e4f9"/></g></g><g><g><path d="m52.633 237.607c-12.614 0-13.567-.317-14.562-.649-2.471-.823-4.318-2.694-5.069-5.135-1.276-4.146.589-6.588 4.674-11.938 3.28-4.295 9.384-12.288 19.615-26.905 2.932-4.188 4.823-7.915 5.625-11.084l.198-1.545c-.213-4.792-4.178-8.624-9.021-8.624-4.307 0-8.033 3.059-8.861 7.271-.799 4.066-4.739 6.711-8.805 5.914-4.064-.799-6.712-4.74-5.914-8.805 2.206-11.23 12.123-19.381 23.58-19.381 13.25 0 24.03 10.78 24.03 24.03 0 .317-.02.636-.061.95l-.319 2.499c-.032.25-.077.499-.133.744-1.187 5.118-3.889 10.714-8.03 16.631-6.633 9.477-11.567 16.226-15.141 21.009 5.66-.013 12.437-.065 18.828-.146.032-.001.064-.001.096-.001 4.099 0 7.446 3.296 7.498 7.406.052 4.142-3.264 7.541-7.405 7.593-9.186.117-15.895.166-20.823.166z" fill="#a9e4f9"/></g></g><g fill="#cfeffc"><path d="m87.636 313.782h-32.922c-3.644 0-6.598-2.954-6.598-6.598v-32.922c0-3.644 2.954-6.598 6.598-6.598h32.922c3.644 0 6.598 2.954 6.598 6.598v32.922c0 3.644-2.954 6.598-6.598 6.598z"/><path d="m166.112 313.782h-32.922c-3.644 0-6.598-2.954-6.598-6.598v-32.922c0-3.644 2.954-6.598 6.598-6.598h32.922c3.644 0 6.598 2.954 6.598 6.598v32.922c0 3.644-2.954 6.598-6.598 6.598z"/><path d="m244.588 313.782h-32.922c-3.644 0-6.598-2.954-6.598-6.598v-32.922c0-3.644 2.954-6.598 6.598-6.598h32.922c3.644 0 6.598 2.954 6.598 6.598v32.922c0 3.644-2.954 6.598-6.598 6.598z"/><path d="m306.38 227.353h-32.922c-3.644 0-6.598-2.954-6.598-6.598v-32.922c0-3.644 2.954-6.598 6.598-6.598h32.922c3.644 0 6.598 2.954 6.598 6.598v32.922c0 3.644-2.954 6.598-6.598 6.598z"/><path d="m384.405 227.353h-32.922c-3.644 0-6.598-2.954-6.598-6.598v-32.922c0-3.644 2.954-6.598 6.598-6.598h32.922c3.644 0 6.598 2.954 6.598 6.598v32.922c0 3.644-2.954 6.598-6.598 6.598z"/><path d="m87.636 387.649h-32.922c-3.644 0-6.598-2.954-6.598-6.598v-32.922c0-3.644 2.954-6.598 6.598-6.598h32.922c3.644 0 6.598 2.954 6.598 6.598v32.922c0 3.644-2.954 6.598-6.598 6.598z"/><path d="m166.112 387.649h-32.922c-3.644 0-6.598-2.954-6.598-6.598v-32.922c0-3.644 2.954-6.598 6.598-6.598h32.922c3.644 0 6.598 2.954 6.598 6.598v32.922c0 3.644-2.954 6.598-6.598 6.598z"/><path d="m244.588 387.649h-32.922c-3.644 0-6.598-2.954-6.598-6.598v-32.922c0-3.644 2.954-6.598 6.598-6.598h32.922c3.644 0 6.598 2.954 6.598 6.598v32.922c0 3.644-2.954 6.598-6.598 6.598z"/></g></g><circle cx="389.003" cy="376.503" fill="#cecece" r="15.763"/><g fill="#81d9f8"><path d="m389.003 268.987c-2.522 0-5.034.087-7.513.258l.008 12.442c4.817-2.294 9.833-4.236 15.012-5.802l.004-6.64c-2.478-.17-4.989-.258-7.511-.258z"/><path d="m381.503 475.91v7.845c2.479.171 4.978.265 7.5.265s5.021-.094 7.5-.265v-2.05c-5.175-1.566-10.187-3.503-15-5.795z"/></g></g></svg>