<svg id="Layer_4" enable-background="new 0 0 24 24" height="512" viewBox="0 0 24 24" width="512" xmlns="http://www.w3.org/2000/svg"><path d="m11.25 12.75v-1.5-10.25c0-.552-.448-1-1-1h-9.25c-.552 0-1 .448-1 1v22c0 .552.448 1 1 1h9.25c.552 0 1-.448 1-1z" fill="#42a5f5"/><path d="m5.625 0h-4.625c-.552 0-1 .448-1 1v22c0 .552.448 1 1 1h4.625z" fill="#3990d5"/><path d="m13.75 24h9.25c.552 0 1-.448 1-1v-9.25c0-.552-.448-1-1-1h-9.25c-.552 0-1 .448-1 1v9.25c0 .552.448 1 1 1z" fill="#90caf9"/><path d="m23 0h-9.25c-.552 0-1 .448-1 1v9.25c0 .552.448 1 1 1h9.25c.552 0 1-.448 1-1v-9.25c0-.552-.448-1-1-1z" fill="#90caf9"/><g fill="#7db0d9"><path d="m18.375 12.75h-4.625c-.552 0-1 .448-1 1v9.25c0 .552.448 1 1 1h4.625z"/><path d="m18.375 0h-4.625c-.552 0-1 .448-1 1v9.25c0 .552.448 1 1 1h4.625z"/></g></svg>